<svg width="12" height="12" viewBox="0 0 12 12" fill="none" xmlns="http://www.w3.org/2000/svg">
<g clip-path="url(#clip0)">
<path d="M7.30389 6.23205C7.83921 7.58643 8.23671 8.98079 8.49504 10.4053C8.86356 10.1806 9.208 9.91062 9.52105 9.59765C10.3342 8.78442 10.8589 7.75974 11.0443 6.64762C10.2455 6.31716 9.37065 6.13428 8.45382 6.13428C8.0619 6.13428 7.67781 6.16809 7.30389 6.23205Z" fill="black"/>
<path d="M9.52602 1.88374C9.52444 1.88224 9.52294 1.88058 9.52144 1.87908C8.49051 0.848238 7.11997 0.280518 5.66215 0.280518C5.0921 0.280518 4.53537 0.367712 4.00713 0.535105C4.85384 1.59593 5.59869 2.72804 6.23703 3.92452C7.4396 3.41393 8.54731 2.72212 9.52602 1.88374Z" fill="black"/>
<path d="M9.95446 2.36719C8.92779 3.24904 7.78052 3.96367 6.53207 4.49774C6.71612 4.86826 6.88992 5.24468 7.05398 5.62669C7.51211 5.53949 7.97956 5.49502 8.45384 5.49502C9.3725 5.49502 10.266 5.66025 11.1139 5.98546C11.1176 5.90351 11.1196 5.82131 11.1196 5.73878C11.1196 4.50024 10.7097 3.32491 9.95446 2.36719Z" fill="black"/>
<path d="M2.30264 10.0406C3.25812 10.7898 4.42887 11.1961 5.66208 11.1961C6.44591 11.1961 7.20443 11.0317 7.89857 10.7198C7.6384 9.21223 7.22183 7.75766 6.66602 6.37329C4.73451 6.90045 3.14319 8.25975 2.30264 10.0406Z" fill="black"/>
<path d="M5.55863 6.07959C5.83936 5.96083 6.12551 5.86023 6.41616 5.77745C6.26276 5.42617 6.10003 5.07989 5.92881 4.73853C4.45433 5.28601 2.90391 5.56342 1.31126 5.56342C0.941243 5.56342 0.573645 5.54817 0.208711 5.51836C0.205796 5.59156 0.203964 5.66502 0.203964 5.73872C0.203964 7.19654 0.771685 8.56708 1.80253 9.59792C1.80286 9.59825 1.80328 9.59859 1.80361 9.59892C2.16013 8.88787 2.62642 8.24162 3.19455 7.6734C3.87753 6.9905 4.67286 6.45426 5.55863 6.07959Z" fill="black"/>
<path d="M5.62975 4.1639C4.98209 2.96442 4.22432 1.83272 3.37028 0.782227C2.79473 1.04881 2.26449 1.41732 1.80262 1.87919C0.97681 2.705 0.448565 3.74891 0.271011 4.88102C0.614125 4.90909 0.961071 4.92366 1.31135 4.92366C2.82721 4.92366 4.2817 4.65534 5.62975 4.1639Z" fill="black"/>
</g>
<defs>
<clipPath id="clip0">
<rect x="0.203979" y="0.280518" width="10.9157" height="10.9157" fill="white"/>
</clipPath>
</defs>
</svg>
