<svg width="27" height="28" viewBox="0 0 27 28" fill="none" xmlns="http://www.w3.org/2000/svg">
<g clip-path="url(#clip0)">
<path d="M13.8154 1.39355C6.58203 1.39355 0.723297 7.1541 0.723297 14.2588C0.723297 19.944 4.4742 24.7652 9.67505 26.465C10.3297 26.5861 10.5697 26.1879 10.5697 25.8464C10.5697 25.5409 10.5588 24.7314 10.5533 23.6589C6.91152 24.4346 6.14345 21.9329 6.14345 21.9329C5.54775 20.4481 4.68694 20.051 4.68694 20.051C3.50101 19.2534 4.77859 19.2698 4.77859 19.2698C6.09326 19.3593 6.78387 20.5954 6.78387 20.5954C7.95125 22.5625 9.84852 21.994 10.597 21.6657C10.7148 20.8332 11.0519 20.267 11.4261 19.9451C8.51858 19.6233 5.46265 18.517 5.46265 13.5878C5.46265 12.1837 5.96997 11.0359 6.81005 10.1358C6.66277 9.81071 6.22091 8.50259 6.92461 6.73079C6.92461 6.73079 8.02108 6.38603 10.525 8.04982C11.5723 7.76397 12.6852 7.62214 13.798 7.6156C14.9108 7.62214 16.0237 7.76397 17.071 8.04982C19.5585 6.38603 20.655 6.73079 20.655 6.73079C21.3587 8.50259 20.9168 9.81071 20.7859 10.1358C21.6205 11.0359 22.1279 12.1837 22.1279 13.5878C22.1279 18.5301 19.0676 19.6178 16.1546 19.9342C16.6128 20.3204 17.0383 21.1092 17.0383 22.3148C17.0383 24.0364 17.0219 25.4198 17.0219 25.8377C17.0219 26.1748 17.251 26.5774 17.922 26.4486C23.16 24.7598 26.9076 19.9353 26.9076 14.2588C26.9076 7.1541 21.0456 1.39355 13.8154 1.39355V1.39355Z" fill="black"/>
</g>
<defs>
<clipPath id="clip0">
<rect x="0.723297" y="0.847412" width="26.1843" height="26.1843" fill="white"/>
</clipPath>
</defs>
</svg>
