<svg width="60" height="61" viewBox="0 0 60 61" fill="none" xmlns="http://www.w3.org/2000/svg">
<g clip-path="url(#clip0)">
<path d="M59.6517 25.3583C59.3744 25.081 58.9761 24.9609 58.592 25.0381L48.4931 27.0706C48.0697 27.1559 47.7274 27.4671 47.6025 27.8804C47.4776 28.2938 47.5902 28.7425 47.8956 29.048L49.2619 30.4143L43.8995 35.7766L39.7484 31.6254C39.5285 31.4057 39.2306 31.2822 38.9198 31.2822C38.609 31.2822 38.3111 31.4057 38.0912 31.6254L32.9975 36.7193L34.9082 29.8538C35.3727 28.1849 35.038 26.4365 33.9901 25.057C33.3482 24.2121 32.5008 23.5892 31.5427 23.2323L33.0701 18.869C33.4916 18.9061 33.9121 18.9249 34.3277 18.9249C37.7113 18.9249 41.0104 17.7323 43.6173 15.5669L43.8965 15.335C45.2709 14.1931 45.5057 12.2087 44.4314 10.8176C43.8867 10.112 43.0994 9.66958 42.2147 9.57185C41.3297 9.47401 40.4649 9.73368 39.7801 10.3026L39.4629 10.5661C38.9955 10.9543 38.4844 11.2896 37.9437 11.5622C36.1368 12.4737 33.8804 12.0678 32.3811 10.5839C34.562 9.90839 36.1508 7.87253 36.1508 5.47248C36.1509 2.52274 33.7509 0.122925 30.8011 0.122925C27.8511 0.122925 25.4513 2.52274 25.4513 5.4726C25.4513 6.64649 25.8322 7.7325 26.4757 8.61556C25.2587 8.87757 24.1634 9.50506 23.3253 10.3922C23.2765 10.4351 23.2296 10.4815 23.1872 10.5338C21.1214 13.0712 18.3675 14.8912 15.2232 15.7968C14.3719 16.0422 13.6982 16.6075 13.2938 17.3242L10.8921 14.9225C9.84124 13.8717 8.1316 13.8718 7.08063 14.9225L3.93755 18.0657L0.794467 21.2087C0.285327 21.7178 0.0050354 22.3945 0.0050354 23.1145C0.0050354 23.8345 0.285444 24.5112 0.79435 25.0203L9.45443 33.6804C9.96357 34.1894 10.6403 34.4697 11.3602 34.4697C12.0803 34.4697 12.757 34.1893 13.266 33.6804L16.5204 30.426L14.9773 34.4724C14.7467 35.0771 15.0499 35.7542 15.6546 35.9848C15.792 36.0372 15.9331 36.0621 16.072 36.0621C16.544 36.0621 16.9889 35.7747 17.1671 35.3076L21.0103 25.2301H28.3469H29.6151C30.6087 25.2301 31.523 25.6838 32.124 26.4749C32.725 27.2659 32.917 28.2685 32.6505 29.2255L29.9879 38.7927C29.8681 39.2232 29.4723 39.5239 29.0254 39.5239C28.6244 39.5239 28.3771 39.3043 28.2655 39.1734C28.1538 39.0425 27.9757 38.7637 28.0386 38.3679L29.4554 29.4609C29.5093 29.1222 29.4121 28.777 29.1894 28.5161C28.9668 28.2553 28.641 28.1051 28.2982 28.1051H25.5201C25.0782 28.1051 24.6738 28.3536 24.4744 28.7479C24.4059 28.8831 17.6071 42.326 15.3161 46.8683C15.0867 47.3232 14.5881 47.5827 14.0769 47.5128L14.0213 47.5053C13.6725 47.4581 13.3695 47.2575 13.1896 46.9549C13.0097 46.6522 12.9787 46.29 13.1042 45.9612L13.8262 44.0679C14.0569 43.4633 13.7536 42.7862 13.149 42.5555C12.5444 42.3249 11.8673 42.6283 11.6365 43.2328L10.9145 45.1261C10.5326 46.1275 10.6275 47.2302 11.1748 48.1517C11.7222 49.0731 12.6452 49.6841 13.7064 49.8277L13.7619 49.8351C13.9226 49.857 14.0826 49.8675 14.2416 49.8675C15.5683 49.8675 16.8022 49.1262 17.4086 47.9237C19.4098 43.956 24.8523 33.1936 26.2406 30.4486H26.9253L25.7242 37.9997C25.5704 38.9673 25.8469 39.9497 26.4831 40.6948C26.8922 41.1742 27.4221 41.5212 28.0087 41.7083L14.9554 54.7617C14.7357 54.9815 14.6122 55.2795 14.6122 55.5902C14.6122 55.901 14.7357 56.1991 14.9554 56.4188L18.3164 59.7797C18.5453 60.0084 18.8451 60.1229 19.145 60.1229C19.4448 60.1229 19.7447 60.0084 19.9736 59.7797L26.4349 53.3184C26.8925 52.8608 26.8925 52.1188 26.4349 51.6611C25.9772 51.2036 25.2355 51.2036 24.7776 51.6611L19.145 57.2939L17.4412 55.5901L38.92 34.111L43.0712 38.2622C43.291 38.4819 43.589 38.6054 43.8998 38.6054C44.2105 38.6054 44.5085 38.4819 44.7283 38.2622L51.7477 31.2427C52.2053 30.7852 52.2053 30.0432 51.7477 29.5855L51.0988 28.9366L57.3267 27.6832L56.0733 33.9111L55.1088 32.9466C54.6511 32.4892 53.9094 32.4892 53.4516 32.9466L43.8997 42.4986L39.7485 38.3474C39.2908 37.8899 38.549 37.8899 38.0912 38.3474L31.4061 45.0326C30.9485 45.4901 30.9485 46.2321 31.4061 46.6898C31.8638 47.1473 32.6055 47.1473 33.0633 46.6898L38.9198 40.8333L43.071 44.9845C43.5287 45.442 44.2704 45.442 44.7282 44.9845L54.2802 35.4326L55.9621 37.1146C56.2675 37.4199 56.7164 37.5328 57.1296 37.4076C57.543 37.2828 57.8543 36.9406 57.9395 36.5171L59.972 26.418C60.0493 26.0336 59.9291 25.6357 59.6517 25.3583ZM30.8011 2.4665C32.4587 2.4665 33.8072 3.8151 33.8072 5.4726C33.8072 7.1302 32.4586 8.47881 30.8011 8.47881C29.1435 8.47881 27.7949 7.1302 27.7949 5.4726C27.7949 3.8151 29.1435 2.4665 30.8011 2.4665ZM19.206 23.2364L17.78 21.8103C18.4573 21.5893 19.1225 21.3366 19.7738 21.0538L19.206 23.2364ZM15.2514 19.1717C15.1129 18.691 15.3914 18.1874 15.8721 18.0489C17.7984 17.4939 19.5951 16.6371 21.2138 15.5182L20.5521 18.0621C19.2347 18.7901 17.8322 19.3722 16.3738 19.7923C16.3468 19.8 16.3184 19.8068 16.2904 19.8122C16.0742 19.8533 15.8579 19.8103 15.6763 19.7067L15.333 19.3635C15.2992 19.3037 15.2711 19.2399 15.2514 19.1717ZM8.73765 16.5796C8.8062 16.5111 8.89631 16.4768 8.9863 16.4768C9.0763 16.4768 9.16641 16.5111 9.23484 16.5796L13.5062 20.851C13.7044 21.1216 13.9406 21.3574 14.2067 21.5515L17.895 25.2398C18.0321 25.3768 18.0321 25.5999 17.895 25.7369L15.5805 28.0514L13.0065 25.4773L13.4967 24.987C13.9543 24.5295 13.9543 23.7875 13.4967 23.3298L10.8591 20.6921C10.4014 20.2346 9.65961 20.2346 9.2018 20.6921L8.71152 21.1824L6.42314 18.894L8.73765 16.5796ZM10.3416 24.8279C10.2295 24.9401 10.0986 24.9569 10.0305 24.9569C9.96252 24.9569 9.83163 24.9401 9.71949 24.828V24.8279L9.36104 24.4696C9.24902 24.3574 9.23215 24.2266 9.23215 24.1586C9.23215 24.0905 9.24902 23.9596 9.36116 23.8475L10.0305 23.1782L11.0109 24.1586L10.3416 24.8279ZM11.6088 32.0233C11.5236 32.1083 11.4267 32.1261 11.3602 32.1261C11.2939 32.1261 11.1968 32.1083 11.1117 32.0231L2.45161 23.3631C2.36642 23.2779 2.34861 23.1809 2.34861 23.1145C2.34861 23.0481 2.36642 22.9511 2.45161 22.866L4.766 20.5515L7.16394 22.9493C6.98407 23.3217 6.88857 23.7328 6.88857 24.1586C6.88857 24.9022 7.17824 25.6012 7.7039 26.1268L8.06223 26.4851V26.4852C8.5879 27.0108 9.28698 27.3005 10.0305 27.3005C10.4563 27.3005 10.8674 27.2051 11.2398 27.0251L13.9234 29.7088L11.6088 32.0233ZM28.3468 22.8865H21.7187L24.1259 13.6326C24.5564 11.978 26.051 10.8225 27.7607 10.8225C28.8168 10.8225 29.7937 11.2483 30.5114 12.0216C32.713 14.3938 36.2036 15.0653 38.9994 13.6548C39.6975 13.3027 40.3575 12.8702 40.9607 12.3689L41.2779 12.1054C41.4691 11.9465 41.7104 11.8736 41.9577 11.9015C42.2043 11.9287 42.4241 12.0524 42.5767 12.2501C42.8712 12.6313 42.7914 13.2066 42.3991 13.5325L42.1199 13.7644C39.9329 15.5811 37.1656 16.5816 34.3278 16.5816C33.7116 16.5816 33.0817 16.5323 32.4557 16.4349C31.8968 16.3472 31.3563 16.6721 31.1695 17.2056L29.1807 22.8865H28.3468Z" fill="#484848"/>
<path d="M28.9426 48.0256C28.6344 48.0256 28.3321 48.1509 28.1142 48.369C27.8962 48.5868 27.7708 48.8891 27.7708 49.1974C27.7708 49.5068 27.8961 49.8079 28.1142 50.0258C28.3321 50.2449 28.6344 50.3692 28.9426 50.3692C29.2508 50.3692 29.5531 50.2449 29.771 50.0258C29.9889 49.8079 30.1144 49.5067 30.1144 49.1974C30.1144 48.8891 29.989 48.5868 29.771 48.369C29.5531 48.1509 29.2508 48.0256 28.9426 48.0256Z" fill="#484848"/>
<path d="M14.3996 40.4488C14.7078 40.4488 15.0101 40.3234 15.2281 40.1053C15.4459 39.8875 15.5714 39.5852 15.5714 39.277C15.5714 38.9688 15.446 38.6665 15.2281 38.4486C15.0089 38.2306 14.7078 38.1052 14.3996 38.1052C14.0914 38.1052 13.7891 38.2305 13.57 38.4486C13.3521 38.6665 13.2278 38.9688 13.2278 39.277C13.2278 39.5852 13.3521 39.8875 13.57 40.1053C13.7891 40.3233 14.0902 40.4488 14.3996 40.4488Z" fill="#484848"/>
</g>
<defs>
<clipPath id="clip0">
<rect y="0.122925" width="60" height="60" fill="white"/>
</clipPath>
</defs>
</svg>
