<svg width="61" height="39" viewBox="0 0 61 39" fill="none" xmlns="http://www.w3.org/2000/svg">
<path d="M29.8002 0.851543C30.7381 -0.074375 32.2589 -0.074375 33.1968 0.851543L33.4005 1.05272L28.6453 5.74698C28.643 5.74931 28.6404 5.75183 28.6381 5.75411C28.5745 5.81605 28.5062 5.87027 28.4344 5.91713C27.9122 6.25739 27.2028 6.20068 26.7432 5.74698C26.6775 5.68217 26.6201 5.61233 26.5709 5.5387C26.2262 5.02335 26.2835 4.32298 26.7432 3.86928L29.8002 0.851543Z" fill="#252525"/>
<path d="M34.3516 1.99158L36.2537 3.86929L31.4984 8.56356C30.9733 9.08206 30.1216 9.08206 29.5963 8.56356C29.5306 8.49875 29.4732 8.42888 29.4241 8.35528C29.0811 7.84249 29.1362 7.14654 29.5894 6.69268L29.5904 6.69176C29.5923 6.68979 29.5944 6.68781 29.5963 6.68583L34.3516 1.99158Z" fill="#252525"/>
<path d="M39.1068 6.68607L37.2047 4.80835L32.4494 9.50264C31.9242 10.0211 31.9242 10.8618 32.4494 11.3803C32.5151 11.4451 32.5859 11.5019 32.6604 11.5505C33.181 11.8898 33.8881 11.8343 34.3478 11.3841C34.349 11.3829 34.3504 11.3816 34.3516 11.3803L39.1068 6.68607Z" fill="#252525"/>
<path d="M40.0579 7.62476L40.2202 7.78504C41.1812 8.73356 41.1812 10.2714 40.2202 11.2199L37.2047 14.1967C37.0655 14.3343 36.9032 14.4354 36.73 14.4999C36.6992 14.5114 36.6682 14.5218 36.6366 14.5309C36.1793 14.6645 35.6644 14.5534 35.3033 14.1975L35.3026 14.1967C34.778 13.679 34.7776 12.8398 35.3005 12.3211L40.0579 7.62476Z" fill="#252525"/>
<path d="M25.7925 6.68584C25.3053 6.20491 25.044 5.58541 25.0087 4.95588L23.5733 6.37282C22.5228 7.40985 20.8197 7.40985 19.7691 6.37282L19.1351 5.747C17.5594 4.19143 15.0046 4.19143 13.4288 5.747L12.4778 6.68584L13.425 7.62093L13.4288 7.62469L21.9881 16.0744C25.6649 19.704 31.6262 19.704 35.3029 16.0744L35.5574 15.8231C35.1156 15.7067 34.6983 15.4775 34.3518 15.1355C33.784 14.5747 33.5231 13.8255 33.5694 13.0916C32.8259 13.1373 32.0668 12.8798 31.4989 12.319C30.9306 11.7582 30.6697 11.0089 30.716 10.275C29.9727 10.3207 29.2138 10.0632 28.6457 9.50239C28.0774 8.94156 27.8166 8.19232 27.863 7.45845C27.1196 7.50418 26.3606 7.24665 25.7925 6.68584Z" fill="#252525"/>
<path d="M6.33759 26.69C7.31548 26.69 8.19418 26.8981 8.97366 27.314C9.75317 27.7299 10.3626 28.3399 10.8019 29.1439C11.2413 29.9341 11.461 30.8909 11.461 32.0139V37.1298C11.461 37.4348 11.3546 37.6912 11.1421 37.8993C10.9436 38.0933 10.6885 38.1902 10.3768 38.1902C10.065 38.1902 9.80275 38.0933 9.59017 37.8993C9.39176 37.6912 9.29254 37.4348 9.29254 37.1298V32.0139C9.29254 30.8909 8.98074 30.0451 8.35718 29.4767C7.74775 28.8945 6.93282 28.6033 5.91241 28.6033C5.31715 28.6033 4.77152 28.7212 4.27548 28.9569C3.7936 29.1925 3.41095 29.5115 3.1275 29.9133C2.85823 30.3155 2.72359 30.7659 2.72359 31.2653V37.1298C2.72359 37.4348 2.62438 37.6912 2.42596 37.8993C2.22755 38.0933 1.96536 38.1902 1.63939 38.1902C1.32759 38.1902 1.0654 38.0933 0.852814 37.8993C0.654399 37.6912 0.555191 37.4348 0.555191 37.1298V22.9884C0.555191 22.6694 0.654399 22.413 0.852814 22.219C1.0654 22.0249 1.32759 21.9277 1.63939 21.9277C1.96536 21.9277 2.22755 22.0249 2.42596 22.219C2.62438 22.413 2.72359 22.6694 2.72359 22.9884V28.0835C3.17711 27.6398 3.71566 27.3 4.33926 27.0644C4.96285 26.8147 5.62894 26.69 6.33759 26.69Z" fill="#252525"/>
<path d="M15.0668 27.8545C15.0668 27.5358 15.166 27.2791 15.3645 27.0851C15.577 26.891 15.8392 26.7939 16.151 26.7939C16.477 26.7939 16.7392 26.891 16.9376 27.0851C17.136 27.2791 17.2352 27.5358 17.2352 27.8545V37.109C17.2352 37.4139 17.136 37.6703 16.9376 37.8784C16.7392 38.0725 16.477 38.1694 16.151 38.1694C15.8392 38.1694 15.577 38.0725 15.3645 37.8784C15.166 37.6703 15.0668 37.4139 15.0668 37.109V27.8545ZM16.151 22.1981C16.5337 22.1981 16.8596 22.3366 17.1289 22.614C17.4124 22.8774 17.5541 23.1962 17.5541 23.5705C17.5541 23.9449 17.4124 24.2706 17.1289 24.5481C16.8596 24.8115 16.5337 24.9432 16.151 24.9432C15.7684 24.9432 15.4353 24.8115 15.1519 24.5481C14.8826 24.2706 14.748 23.9449 14.748 23.5705C14.748 23.1962 14.8826 22.8774 15.1519 22.614C15.4353 22.3366 15.7684 22.1981 16.151 22.1981Z" fill="#252525"/>
<path d="M26.0098 36.0898C26.2649 36.0898 26.4775 36.187 26.6475 36.3811C26.8318 36.5751 26.9239 36.8248 26.9239 37.1298C26.9239 37.4347 26.8034 37.6841 26.5625 37.8784C26.3357 38.0725 26.0381 38.1694 25.6696 38.1694H25.287C24.5925 38.1694 23.9548 37.9961 23.3737 37.6496C22.8068 37.289 22.3604 36.8037 22.0344 36.1937C21.7084 35.5838 21.5454 34.8974 21.5454 34.135V28.9984H20.5675C20.2699 28.9984 20.029 28.9153 19.8447 28.7487C19.6605 28.5825 19.5684 28.3744 19.5684 28.125C19.5684 27.8475 19.6605 27.6257 19.8447 27.4594C20.029 27.2932 20.2699 27.2098 20.5675 27.2098H21.5454V24.2153C21.5454 23.9103 21.6446 23.6607 21.843 23.4666C22.0415 23.2726 22.2966 23.1754 22.6084 23.1754C22.9202 23.1754 23.1753 23.2726 23.3737 23.4666C23.5721 23.6607 23.6713 23.9103 23.6713 24.2153V27.2098H25.4783C25.7759 27.2098 26.0169 27.2932 26.2011 27.4594C26.3853 27.6257 26.4775 27.8475 26.4775 28.125C26.4775 28.3744 26.3853 28.5825 26.2011 28.7487C26.0169 28.9153 25.7759 28.9984 25.4783 28.9984H23.6713V34.135C23.6713 34.6896 23.8272 35.1541 24.139 35.5285C24.4508 35.9028 24.8335 36.0898 25.287 36.0898H26.0098Z" fill="#252525"/>
<path d="M34.5423 26.7106C36.2147 26.7106 37.6038 27.3346 38.7092 28.5823C38.8509 28.7348 38.9217 28.9151 38.9217 29.1229C38.9217 29.4279 38.7657 29.6845 38.454 29.8923C38.3124 29.9895 38.1493 30.0381 37.9652 30.0381C37.6392 30.0381 37.3629 29.9131 37.1361 29.6638C36.7816 29.2894 36.3921 29.019 35.9668 28.8527C35.5559 28.6724 35.0811 28.5823 34.5423 28.5823C33.4512 28.5823 32.5655 28.9429 31.885 29.6638C31.2048 30.3706 30.8647 31.3136 30.8647 32.492C30.8647 33.2407 31.0207 33.913 31.3324 34.5092C31.6585 35.0913 32.1048 35.5491 32.6717 35.8816C33.2527 36.2143 33.9118 36.3809 34.6488 36.3809C35.6123 36.3809 36.3921 36.1382 36.9871 35.653C37.2564 35.4589 37.5186 35.3618 37.7738 35.3618C37.9723 35.3618 38.1564 35.4241 38.3264 35.5491C38.5957 35.7709 38.7303 36.0203 38.7303 36.2978C38.7303 36.5056 38.6454 36.6929 38.4754 36.8591C37.4548 37.7881 36.1793 38.2526 34.6488 38.2526C33.529 38.2526 32.5228 38.0029 31.6301 37.5039C30.7371 37.0046 30.0355 36.3185 29.5254 35.4449C29.0293 34.5577 28.7813 33.5734 28.7813 32.492C28.7813 31.3827 29.0223 30.3917 29.5041 29.518C30.0001 28.6309 30.6876 27.9445 31.5663 27.4593C32.4449 26.9602 33.4371 26.7106 34.5423 26.7106Z" fill="#252525"/>
<path d="M47.714 26.69C48.6918 26.69 49.5708 26.8981 50.3502 27.314C51.1296 27.7299 51.739 28.3399 52.1783 29.1439C52.6176 29.9341 52.8374 30.8909 52.8374 32.0139V37.1298C52.8374 37.4348 52.7312 37.6912 52.5187 37.8993C52.3203 38.0933 52.065 38.1902 51.7533 38.1902C51.4413 38.1902 51.1794 38.0933 50.9666 37.8993C50.7681 37.6912 50.6689 37.4348 50.6689 37.1298V32.0139C50.6689 30.8909 50.3572 30.0451 49.7338 29.4767C49.1241 28.8945 48.3093 28.6033 47.289 28.6033C46.6937 28.6033 46.1481 28.7212 45.652 28.9569C45.17 29.1925 44.7874 29.5115 44.5041 29.9133C44.2348 30.3155 44.1002 30.7659 44.1002 31.2653V37.1298C44.1002 37.4348 44.001 37.6912 43.8025 37.8993C43.6041 38.0933 43.3418 38.1902 43.0158 38.1902C42.7041 38.1902 42.4418 38.0933 42.2294 37.8993C42.0309 37.6912 41.9317 37.4348 41.9317 37.1298V22.9884C41.9317 22.6694 42.0309 22.413 42.2294 22.219C42.4418 22.0249 42.7041 21.9277 43.0158 21.9277C43.3418 21.9277 43.6041 22.0249 43.8025 22.219C44.001 22.413 44.1002 22.6694 44.1002 22.9884V28.0835C44.5536 27.6398 45.0921 27.3 45.7158 27.0644C46.3392 26.8147 47.0054 26.69 47.714 26.69Z" fill="#252525"/>
<path d="M59.0227 28.2209C59.9224 28.2209 60.5552 27.5674 60.5552 26.7206C60.5552 25.8795 59.9224 25.2203 59.0227 25.2203C58.1288 25.2203 57.4902 25.8795 57.4902 26.7206C57.4902 27.5674 58.1288 28.2209 59.0227 28.2209ZM59.0227 27.8287C58.3609 27.8287 57.9257 27.3684 57.9257 26.7206C57.9257 26.0785 58.3609 25.6125 59.0227 25.6125C59.6845 25.6125 60.12 26.0785 60.12 26.7206C60.12 27.3684 59.6845 27.8287 59.0227 27.8287ZM59.6962 27.4594L59.4234 26.9592C59.5917 26.8684 59.6786 26.7092 59.6786 26.5102C59.6786 26.1976 59.4638 25.9875 59.0286 25.9875H58.454V27.4594H58.8371V27.0388H58.9765C58.9879 27.0388 59.0575 27.0332 59.0575 27.0332L59.2607 27.4594H59.6962ZM59.0692 26.3399C59.2027 26.3399 59.2841 26.3966 59.2841 26.5102C59.2841 26.6241 59.2027 26.6864 59.0692 26.6864H58.8371V26.3399H59.0692Z" fill="#252525"/>
</svg>
