<svg width="60" height="61" viewBox="0 0 60 61" fill="none" xmlns="http://www.w3.org/2000/svg">
<g clip-path="url(#clip0)">
<path d="M55.3738 0.752625C53.2266 0.752625 51.4165 2.21981 50.8955 4.20251H34.6277V1.9279C34.6277 1.28067 34.103 0.756023 33.4559 0.756023H26.5474C25.9003 0.756023 25.3755 1.28067 25.3755 1.9279V4.20262H9.10453C8.58398 2.21981 6.7752 0.752625 4.62949 0.752625C2.0768 0.752625 0 2.82602 0 5.37438C0 7.92098 2.0768 9.99286 4.62949 9.99286C6.77484 9.99286 8.5834 8.52719 9.1043 6.54626H21.3899C17.55 8.77188 14.6512 12.4355 13.4353 16.7958H10.5183C9.87117 16.7958 9.34641 17.3205 9.34641 17.9677V24.8608C9.34641 25.508 9.87117 26.0327 10.5183 26.0327H13.4333C14.4462 29.6764 16.6192 32.855 19.6566 35.1382L18.0302 38.5995C17.892 38.8939 17.8821 39.2324 18.0034 39.5343C18.1245 39.8362 18.3655 40.0741 18.669 40.1911C19.8703 40.6548 20.8179 41.5573 21.3375 42.7323C21.7627 43.694 21.8582 44.7441 21.6223 45.7497C19.8519 46.1559 18.5271 47.7407 18.5271 49.6299C18.5271 51.8256 20.3163 53.612 22.5155 53.612H22.5859V59.446C22.5859 60.0932 23.1107 60.6179 23.7578 60.6179H36.2426C36.8897 60.6179 37.4145 60.0932 37.4145 59.446V53.612H37.4849C39.6841 53.612 41.4732 51.8256 41.4732 49.6299C41.4732 47.7407 40.1484 46.1559 38.3781 45.7497C38.1422 44.7442 38.2377 43.6943 38.6631 42.7329C39.1829 41.5577 40.1316 40.6551 41.3343 40.1914C41.6378 40.0743 41.8789 39.8364 42.0002 39.5344C42.1214 39.2325 42.1117 38.8938 41.9733 38.5994L40.3594 35.1664C43.4173 32.88 45.6034 29.6916 46.6202 26.0328H49.5318C50.1789 26.0328 50.7036 25.5081 50.7036 24.8609V17.9678C50.7036 17.3206 50.1789 16.7959 49.5318 16.7959H46.6177C45.3997 12.4339 42.5033 8.77212 38.666 6.54637H50.8959C51.4172 8.52731 53.227 9.99298 55.374 9.99298C57.925 9.99298 60.0002 7.9211 60.0002 5.3745C60 2.82602 57.9247 0.752625 55.3738 0.752625ZM4.62949 7.64911C3.36914 7.64911 2.34375 6.62864 2.34375 5.37438C2.34375 4.11825 3.36914 3.09637 4.62949 3.09637C5.88797 3.09637 6.91195 4.11825 6.91195 5.37438C6.91184 6.62864 5.88797 7.64911 4.62949 7.64911ZM27.7193 3.09977H32.284V7.64923H27.7193V3.09977ZM14.33 23.6889H11.6902V19.1396H14.3448C14.3462 19.1396 14.3476 19.1398 14.349 19.1398C14.3508 19.1398 14.3525 19.1396 14.3543 19.1396H16.255V23.6889H14.3364C14.3343 23.689 14.3321 23.6889 14.33 23.6889ZM35.0707 58.2741H24.9293V53.612H35.0706V58.2741H35.0707ZM39.1294 49.6299C39.1294 50.5333 38.3916 51.2683 37.4848 51.2683H22.5152C21.6084 51.2683 20.8706 50.5333 20.8706 49.6299C20.8706 48.7278 21.6064 47.9937 22.5116 47.9917C22.5128 47.9917 22.5139 47.9918 22.5151 47.9918C22.5182 47.9918 22.5212 47.9915 22.5241 47.9915H37.476C37.479 47.9915 37.4821 47.9918 37.4851 47.9918C37.4863 47.9918 37.4875 47.9917 37.4885 47.9917C38.3936 47.9936 39.1294 48.7277 39.1294 49.6299ZM45.7042 19.1398C45.7056 19.1398 45.707 19.1396 45.7084 19.1396H48.3596V23.6889H45.7216C45.7212 23.6889 45.7206 23.6889 45.7201 23.6889H43.7948V19.1396H45.6989C45.7007 19.1396 45.7024 19.1398 45.7042 19.1398ZM44.1698 16.7958H42.623C41.9759 16.7958 41.4511 17.3205 41.4511 17.9677V24.8608C41.4511 25.508 41.9759 26.0327 42.623 26.0327H44.173C43.2784 28.775 41.6073 31.1813 39.3381 32.9942L38.4989 31.2091C38.2235 30.6234 37.5253 30.3716 36.9398 30.6472C36.354 30.9225 36.1024 31.6205 36.3778 32.2062L37.837 35.3103C37.8387 35.3136 37.84 35.317 37.8417 35.3201L39.3626 38.5553C38.1103 39.3078 37.1218 40.4232 36.5195 41.7848C35.9746 43.0169 35.794 44.3465 35.9773 45.6477H24.023C24.2061 44.3465 24.0258 43.0169 23.481 41.7847C22.8791 40.4234 21.8914 39.3081 20.6406 38.5557L28.83 21.1263V32.0651C27.2231 32.5647 26.0532 34.0636 26.0532 35.8304C26.0532 38.0023 27.8245 39.7694 30.0019 39.7694C32.1772 39.7694 33.9471 38.0023 33.9471 35.8304C33.9471 34.0641 32.7787 32.5654 31.1737 32.0655V21.1292L31.9104 22.6979C32.1854 23.2837 32.8833 23.5355 33.4693 23.2605C34.0552 22.9853 34.307 22.2875 34.032 21.7016L31.0627 15.3784C30.6492 14.499 29.3548 14.4984 28.9412 15.3782L20.6779 32.9645C18.4281 31.1559 16.7704 28.7601 15.8804 26.0327H17.4268C18.0739 26.0327 18.5987 25.508 18.5987 24.8608V17.9677C18.5987 17.3205 18.0739 16.7958 17.4268 16.7958H15.8828C17.3489 12.3225 20.8923 8.78137 25.3755 7.31219V8.82098C25.3755 9.46821 25.9003 9.99286 26.5474 9.99286H33.4559C34.103 9.99286 34.6277 9.46821 34.6277 8.82098V7.29403C39.1335 8.7543 42.696 12.303 44.1698 16.7958ZM30.0018 34.2316C30.8848 34.2316 31.6032 34.9488 31.6032 35.8302C31.6032 36.7098 30.8848 37.4255 30.0018 37.4255C29.1168 37.4255 28.3969 36.7098 28.3969 35.8302C28.3968 34.9488 29.1168 34.2316 30.0018 34.2316ZM55.3738 7.64911C54.1134 7.64911 53.088 6.62864 53.088 5.37438C53.088 4.11825 54.1134 3.09637 55.3738 3.09637C56.6323 3.09637 57.6562 4.11825 57.6562 5.37438C57.6562 6.62864 56.6324 7.64911 55.3738 7.64911Z" fill="#484848"/>
<path d="M34.0344 26.9554V26.9587C34.0344 27.6059 34.5592 28.1289 35.2063 28.1289C35.8534 28.1289 36.3782 27.6026 36.3782 26.9554C36.3782 26.3082 35.8534 25.7835 35.2063 25.7835C34.5592 25.7835 34.0344 26.3082 34.0344 26.9554Z" fill="#484848"/>
</g>
<defs>
<clipPath id="clip0">
<rect y="0.685181" width="60" height="60" fill="white"/>
</clipPath>
</defs>
</svg>
