<svg width="12" height="12" viewBox="0 0 12 12" fill="none" xmlns="http://www.w3.org/2000/svg">
<g clip-path="url(#clip0)">
<path d="M10.9533 0.280518H1.61214C1.17733 0.280518 0.82489 0.632959 0.82489 1.06776V10.409C0.82489 10.8438 1.17733 11.1962 1.61214 11.1962H10.9533C11.3881 11.1962 11.7406 10.8438 11.7406 10.409V1.06776C11.7406 0.632959 11.3881 0.280518 10.9533 0.280518V0.280518ZM4.69675 8.53125H3.36752V4.53222H4.69675V8.53125ZM4.03217 3.98615H4.02351C3.57747 3.98615 3.28898 3.6791 3.28898 3.29534C3.28898 2.90293 3.58629 2.60437 4.041 2.60437C4.49571 2.60437 4.77553 2.90293 4.78419 3.29534C4.78419 3.6791 4.49571 3.98615 4.03217 3.98615ZM9.48969 8.53125H8.16062V6.39186C8.16062 5.85421 7.96816 5.48752 7.48722 5.48752C7.12004 5.48752 6.90134 5.73487 6.80524 5.97363C6.77009 6.05908 6.76151 6.1785 6.76151 6.29801V8.53125H5.43236C5.43236 8.53125 5.44977 4.90739 5.43236 4.53222H6.76151V5.09844C6.93815 4.82595 7.2542 4.43836 7.95942 4.43836C8.83394 4.43836 9.48969 5.00991 9.48969 6.23821V8.53125Z" fill="black"/>
</g>
<defs>
<clipPath id="clip0">
<rect x="0.82489" y="0.280518" width="10.9157" height="10.9157" fill="white"/>
</clipPath>
</defs>
</svg>
