<svg width="64" height="49" viewBox="0 0 64 49" fill="none" xmlns="http://www.w3.org/2000/svg">
<g clip-path="url(#clip0)">
<path d="M17.3586 21.3057C21.1545 21.3057 24.2317 18.2285 24.2317 14.4326C24.2317 10.6367 21.1545 7.55945 17.3586 7.55945C13.5626 7.55945 10.4854 10.6367 10.4854 14.4326C10.4854 18.2285 13.5626 21.3057 17.3586 21.3057Z" stroke="black" stroke-width="3.43657"/>
<path d="M42.5789 21.3057C46.3748 21.3057 49.452 18.2285 49.452 14.4326C49.452 10.6367 46.3748 7.55945 42.5789 7.55945C38.7829 7.55945 35.7057 10.6367 35.7057 14.4326C35.7057 18.2285 38.7829 21.3057 42.5789 21.3057Z" stroke="black" stroke-width="3.43657"/>
<path d="M26.902 1.96968C53.8417 -0.326314 17.559 14.3067 17.559 14.3067" stroke="black" stroke-width="3.43657" stroke-linecap="round" stroke-linejoin="round"/>
</g>
<path d="M10.8009 32.4054L9.74788 35.3586C8.32775 34.7535 7.02462 34.4468 5.83848 34.4388C4.91861 34.4388 4.45868 34.6808 4.45868 35.165C4.45868 35.286 4.49499 35.3909 4.56761 35.4797C4.6483 35.5604 4.78951 35.633 4.99123 35.6975C5.20102 35.7621 5.39066 35.8105 5.56011 35.8428C5.73762 35.8751 6.00793 35.9194 6.37102 35.9759L7.24248 36.109C8.51735 36.3027 9.48161 36.7062 10.1352 37.3194C10.7968 37.9246 11.1277 38.7234 11.1277 39.7159C11.1277 41.023 10.6435 42.0438 9.67526 42.778C8.70699 43.5123 7.35948 43.8794 5.63271 43.8794C3.25237 43.8794 1.42477 43.4639 0.149879 42.6328L1.46915 39.7038C2.71983 40.4461 4.11575 40.8173 5.65693 40.8173C6.76236 40.8173 7.31508 40.5591 7.31508 40.0427C7.31508 39.8167 7.17791 39.6473 6.90358 39.5343C6.62924 39.4133 6.14107 39.3003 5.43905 39.1954L4.74918 39.0986C3.32096 38.8888 2.26393 38.4813 1.57808 37.8761C0.90029 37.2629 0.561395 36.4237 0.561395 35.3586C0.561395 34.0999 1.00922 33.1235 1.90486 32.4296C2.80858 31.7357 4.07137 31.3887 5.69323 31.3887C6.64538 31.3887 7.48455 31.4654 8.21073 31.6187C8.945 31.7639 9.8084 32.0262 10.8009 32.4054ZM18.4935 31.3766C20.0669 31.3766 21.3821 31.9818 22.4392 33.1921C23.4962 34.3944 24.0247 35.871 24.0247 37.622C24.0247 39.3891 23.4962 40.8778 22.4392 42.0881C21.3821 43.2904 20.0669 43.8915 18.4935 43.8915C17.1137 43.8915 16.0204 43.4114 15.2135 42.4512V48.4182H11.4372V31.7034H15.0925V32.9864C15.9155 31.9132 17.0491 31.3766 18.4935 31.3766ZM17.5857 34.9108C16.8434 34.9108 16.2342 35.169 15.7582 35.6854C15.2902 36.1938 15.0562 36.8433 15.0562 37.6341C15.0562 38.4248 15.2902 39.0784 15.7582 39.5948C16.2342 40.1032 16.8434 40.3573 17.5857 40.3573C18.3361 40.3573 18.9453 40.0991 19.4133 39.5827C19.8894 39.0663 20.1274 38.4168 20.1274 37.6341C20.1274 36.8514 19.8894 36.2018 19.4133 35.6854C18.9453 35.169 18.3361 34.9108 17.5857 34.9108ZM30.1616 31.3766C32.0175 31.3766 33.5546 31.9697 34.773 33.1558C35.9995 34.342 36.6127 35.8347 36.6127 37.6341C36.6127 39.4335 35.9995 40.9262 34.773 42.1123C33.5546 43.2985 32.0175 43.8915 30.1616 43.8915C28.3138 43.8915 26.7767 43.2985 25.5502 42.1123C24.3318 40.9262 23.7226 39.4335 23.7226 37.6341C23.7226 35.8347 24.3318 34.342 25.5502 33.1558C26.7767 31.9697 28.3138 31.3766 30.1616 31.3766ZM30.1616 34.9108C29.4193 34.9108 28.8061 35.165 28.3219 35.6733C27.8378 36.1817 27.5957 36.8353 27.5957 37.6341C27.5957 38.4329 27.8378 39.0865 28.3219 39.5948C28.8061 40.1032 29.4193 40.3573 30.1616 40.3573C30.912 40.3573 31.5293 40.1032 32.0135 39.5948C32.4976 39.0865 32.7397 38.4329 32.7397 37.6341C32.7397 36.8353 32.4976 36.1817 32.0135 35.6733C31.5293 35.165 30.912 34.9108 30.1616 34.9108ZM40.7477 26.1479V35.637H41.6555L44.4635 31.7034H49.0507L44.6571 37.3073L49.0628 43.5768H44.4877L41.5587 38.9897H40.7477V43.5768H36.9594V26.1479H40.7477ZM54.1033 31.3766C55.8624 31.3766 57.2906 31.9576 58.3879 33.1195C59.4853 34.2734 60.038 35.7782 60.0461 37.6341C60.0461 38.1666 60.0219 38.558 59.9735 38.8081H51.9247C52.2313 40.0749 53.0786 40.7083 54.4664 40.7083C55.4266 40.7083 56.29 40.3614 57.0566 39.6674L59.5014 41.9429C58.2023 43.242 56.4594 43.8915 54.2728 43.8915C52.4088 43.8915 50.9 43.3227 49.7461 42.185C48.5922 41.0472 48.0153 39.5545 48.0153 37.7067C48.0153 35.8347 48.5801 34.3137 49.7098 33.1437C50.8394 31.9657 52.304 31.3766 54.1033 31.3766ZM54.1154 34.5961C52.9616 34.5961 52.2354 35.2013 51.9368 36.4116H56.2577C55.9511 35.2013 55.237 34.5961 54.1154 34.5961Z" fill="black"/>
<path d="M61.4508 32.4128C62.4444 32.4128 63.1428 31.6789 63.1428 30.728C63.1428 29.7835 62.4444 29.0433 61.4508 29.0433C60.4643 29.0433 59.7596 29.7835 59.7596 30.728C59.7596 31.6789 60.4643 32.4128 61.4508 32.4128ZM61.4508 31.9724C60.7203 31.9724 60.2403 31.4555 60.2403 30.728C60.2403 30.0069 60.7203 29.4837 61.4508 29.4837C62.1814 29.4837 62.6621 30.0069 62.6621 30.728C62.6621 31.4555 62.1814 31.9724 61.4508 31.9724ZM62.1947 31.5576L61.8932 30.9961C62.0796 30.894 62.1751 30.7153 62.1751 30.4919C62.1751 30.141 61.9378 29.9048 61.4579 29.9048H60.8237V31.5576H61.2465V31.0854H61.3999C61.4125 31.0854 61.49 31.0791 61.49 31.0791L61.7139 31.5576H62.1947ZM61.5025 30.3005C61.6497 30.3005 61.7397 30.3643 61.7397 30.4919C61.7397 30.6195 61.6497 30.6898 61.5025 30.6898H61.2465V30.3005H61.5025Z" fill="black"/>
<defs>
<clipPath id="clip0">
<rect x="8.70247" width="42.5275" height="23.025" fill="white"/>
</clipPath>
</defs>
</svg>
