<svg width="60" height="61" viewBox="0 0 60 61" fill="none" xmlns="http://www.w3.org/2000/svg">
<g clip-path="url(#clip0)">
<path d="M56.6689 0.46637H3.30325C2.64819 0.46637 2.11764 0.997376 2.11764 1.65198V3.44733C2.11764 4.10193 2.64819 4.63293 3.30325 4.63293C3.95785 4.63293 4.4884 4.10193 4.4884 3.44733V2.83713H28.8007V58.0956H4.4884V12.8814C4.4884 12.2268 3.95785 11.6958 3.30325 11.6958C2.64819 11.6958 2.11764 12.2268 2.11764 12.8814V59.2808C2.11764 59.9354 2.64819 60.4664 3.30325 60.4664H56.6689C57.3235 60.4664 57.8545 59.9354 57.8545 59.2808V1.65198C57.8545 0.997376 57.3235 0.46637 56.6689 0.46637V0.46637ZM55.4833 58.0956H31.1714V2.83713H55.4833V58.0956Z" fill="#484848"/>
<path d="M16.6443 5.27197C11.8337 5.27197 7.91978 9.18585 7.91978 13.9965C7.91978 18.8076 11.8337 22.7215 16.6443 22.7215C21.4554 22.7215 25.3693 18.8076 25.3693 13.9965C25.3693 9.18585 21.4554 5.27197 16.6443 5.27197ZM16.6443 20.3502C13.141 20.3502 10.2905 17.5002 10.2905 13.9965C10.2905 10.4928 13.141 7.64273 16.6443 7.64273C20.148 7.64273 22.9985 10.4928 22.9985 13.9965C22.9985 17.5002 20.148 20.3502 16.6443 20.3502Z" fill="#484848"/>
<path d="M18.2227 11.9755L16.1073 14.0908L15.0664 13.0499C14.6031 12.5871 13.8528 12.5871 13.3896 13.0499C12.9268 13.5127 12.9268 14.2634 13.3896 14.7262L15.2692 16.6058C15.5008 16.837 15.8043 16.9528 16.1073 16.9528C16.4108 16.9528 16.7143 16.837 16.946 16.6058L19.899 13.6523C20.3618 13.1895 20.3618 12.4388 19.899 11.9755C19.4362 11.5127 18.6855 11.5127 18.2227 11.9755Z" fill="#484848"/>
<path d="M43.3273 22.721C48.1384 22.721 52.0518 18.8072 52.0518 13.9965C52.0518 9.18588 48.138 5.27155 43.3273 5.27155C38.5167 5.27155 34.6028 9.18588 34.6028 13.9965C34.6028 18.8072 38.5167 22.721 43.3273 22.721ZM43.3273 7.64276C46.831 7.64276 49.6811 10.4933 49.6811 13.9965C49.6811 17.5002 46.831 20.3503 43.3273 20.3503C39.8241 20.3503 36.9736 17.5002 36.9736 13.9965C36.9736 10.4933 39.8241 7.64276 43.3273 7.64276Z" fill="#484848"/>
<path d="M40.4851 16.8392C40.7163 17.0704 41.0198 17.1862 41.3233 17.1862C41.6263 17.1862 41.9298 17.0704 42.1614 16.8392L43.3274 15.6728L44.4937 16.8392C44.7249 17.0704 45.0284 17.1862 45.3319 17.1862C45.6349 17.1862 45.9384 17.0704 46.1701 16.8392C46.6329 16.3764 46.6329 15.6257 46.1701 15.1624L45.0037 13.9965L46.1701 12.8306C46.6329 12.3673 46.6329 11.6171 46.1701 11.1538C45.7073 10.691 44.9565 10.691 44.4937 11.1538L43.3274 12.3197L42.1614 11.1538C41.6986 10.691 40.9479 10.691 40.4851 11.1538C40.0218 11.6166 40.0218 12.3673 40.4851 12.8306L41.651 13.9965L40.4851 15.1624C40.0218 15.6257 40.0218 16.3764 40.4851 16.8392Z" fill="#484848"/>
<path d="M6.52494 26.8724V33.3896C6.52494 34.0442 7.05549 34.5752 7.71055 34.5752H14.2282C14.8828 34.5752 15.4133 34.0442 15.4133 33.3896V26.8724C15.4133 26.2178 14.8828 25.6868 14.2282 25.6868H7.71055C7.05549 25.6868 6.52494 26.2174 6.52494 26.8724ZM8.8957 28.0576H13.0426V32.2045H8.8957V28.0576Z" fill="#484848"/>
<path d="M25.1592 26.8395H19.0608C18.4062 26.8395 17.8757 27.37 17.8757 28.0246C17.8757 28.6792 18.4062 29.2102 19.0608 29.2102H25.1592C25.8138 29.2102 26.3443 28.6792 26.3443 28.0246C26.3443 27.37 25.8138 26.8395 25.1592 26.8395Z" fill="#484848"/>
<path d="M25.1592 31.2986H19.0608C18.4062 31.2986 17.8757 31.8296 17.8757 32.4842C17.8757 33.1388 18.4062 33.6693 19.0608 33.6693H25.1592C25.8138 33.6693 26.3443 33.1388 26.3443 32.4842C26.3443 31.8296 25.8138 31.2986 25.1592 31.2986Z" fill="#484848"/>
<path d="M6.52494 44.0532C6.52494 44.7078 7.05549 45.2384 7.71055 45.2384H14.2282C14.8828 45.2384 15.4133 44.7078 15.4133 44.0532V37.5356C15.4133 36.881 14.8828 36.35 14.2282 36.35H7.71055C7.05549 36.35 6.52494 36.881 6.52494 37.5356V44.0532ZM8.8957 38.7212H13.0426V42.8676H8.8957V38.7212Z" fill="#484848"/>
<path d="M25.1592 37.5027H19.0608C18.4062 37.5027 17.8757 38.0337 17.8757 38.6883C17.8757 39.3429 18.4062 39.8734 19.0608 39.8734H25.1592C25.8138 39.8734 26.3443 39.3429 26.3443 38.6883C26.3443 38.0337 25.8138 37.5027 25.1592 37.5027Z" fill="#484848"/>
<path d="M25.1592 41.9622H19.0608C18.4062 41.9622 17.8757 42.4928 17.8757 43.1474C17.8757 43.802 18.4062 44.333 19.0608 44.333H25.1592C25.8138 44.333 26.3443 43.802 26.3443 43.1474C26.3443 42.4928 25.8138 41.9622 25.1592 41.9622Z" fill="#484848"/>
<path d="M6.52494 54.7165C6.52494 55.3711 7.05549 55.9021 7.71055 55.9021H14.2282C14.8828 55.9021 15.4133 55.3711 15.4133 54.7165V48.1993C15.4133 47.5447 14.8828 47.0137 14.2282 47.0137H7.71055C7.05549 47.0137 6.52494 47.5447 6.52494 48.1993V54.7165ZM8.8957 49.3844H13.0426V53.5313H8.8957V49.3844Z" fill="#484848"/>
<path d="M25.1592 48.1658H19.0608C18.4062 48.1658 17.8757 48.6968 17.8757 49.3514C17.8757 50.006 18.4062 50.537 19.0608 50.537H25.1592C25.8138 50.537 26.3443 50.006 26.3443 49.3514C26.3443 48.6968 25.8138 48.1658 25.1592 48.1658Z" fill="#484848"/>
<path d="M25.1592 52.6253H19.0608C18.4062 52.6253 17.8757 53.1563 17.8757 53.8109C17.8757 54.4655 18.4062 54.9965 19.0608 54.9965H25.1592C25.8138 54.9965 26.3443 54.4655 26.3443 53.8109C26.3443 53.1563 25.8138 52.6253 25.1592 52.6253Z" fill="#484848"/>
<path d="M35.0089 34.3317H51.8665C52.5211 34.3317 53.0521 33.8007 53.0521 33.1461V26.8724C53.0521 26.2178 52.5211 25.6868 51.8665 25.6868H35.0089C34.3543 25.6868 33.8237 26.2178 33.8237 26.8724V33.1461C33.8237 33.8007 34.3543 34.3317 35.0089 34.3317ZM36.1945 28.0576H50.6809V31.9605H36.1945V28.0576Z" fill="#484848"/>
<path d="M35.0089 39.0783H47.2037C47.8583 39.0783 48.3888 38.5473 48.3888 37.8927C48.3888 37.2381 47.8583 36.7075 47.2037 36.7075H35.0089C34.3543 36.7075 33.8237 37.2381 33.8237 37.8927C33.8237 38.5473 34.3543 39.0783 35.0089 39.0783Z" fill="#484848"/>
<path d="M35.0089 50.2495H51.8665C52.5211 50.2495 53.0521 49.7185 53.0521 49.0639V42.7902C53.0521 42.1356 52.5211 41.6046 51.8665 41.6046H35.0089C34.3543 41.6046 33.8237 42.1356 33.8237 42.7902V49.0639C33.8237 49.7185 34.3543 50.2495 35.0089 50.2495ZM36.1945 43.9758H50.6809V47.8787H36.1945V43.9758Z" fill="#484848"/>
<path d="M35.0089 54.9965H51.8665C52.5211 54.9965 53.0521 54.4655 53.0521 53.8109C53.0521 53.1563 52.5211 52.6253 51.8665 52.6253H35.0089C34.3543 52.6253 33.8237 53.1563 33.8237 53.8109C33.8237 54.4655 34.3543 54.9965 35.0089 54.9965Z" fill="#484848"/>
<path d="M52.9574 37.5042C52.7121 36.8972 52.0213 36.6042 51.4143 36.8496C50.8073 37.0949 50.5143 37.7861 50.7597 38.3931L50.7757 38.4325C50.962 38.8939 51.4061 39.1741 51.8748 39.1741C52.0227 39.1741 52.1733 39.1461 52.3188 39.0871C52.9258 38.8417 53.2188 38.1505 52.9735 37.5435L52.9574 37.5042Z" fill="#484848"/>
<path d="M2.21194 8.68273C2.39871 9.14416 2.84274 9.42431 3.31149 9.42431C3.45935 9.42431 3.60995 9.39639 3.75552 9.33733C4.36251 9.09197 4.65548 8.40121 4.41012 7.79375L4.3941 7.75439C4.14874 7.14785 3.45751 6.85442 2.85052 7.10024C2.24353 7.3456 1.95056 8.03637 2.19638 8.64336L2.21194 8.68273Z" fill="#484848"/>
</g>
<defs>
<clipPath id="clip0">
<rect y="0.46637" width="60" height="60" fill="white"/>
</clipPath>
</defs>
</svg>
